0
SECTION
2
HEADER
9
$INSUNITS
70
1
9
$ACADVER
1
AC1014
9
$HANDSEED
5
FFFF
0
ENDSEC
0
SECTION
2
TABLES
0
TABLE
2
VPORT
5
8
100
AcDbSymbolTable
0
ENDTAB
0
TABLE
2
LTYPE
5
5
100
AcDbSymbolTable
0
LTYPE
5
14
100
AcDbSymbolTableRecord
100
AcDbLinetypeTableRecord
2
BYBLOCK
70
0
0
LTYPE
5
15
100
AcDbSymbolTableRecord
100
AcDbLinetypeTableRecord
2
BYLAYER
70
0
0
ENDTAB
0
TABLE
2
LAYER
5
2
100
AcDbSymbolTable
70
2
0
LAYER
5
50
100
AcDbSymbolTableRecord
100
AcDbLayerTableRecord
2
0
70
0
6
CONTINUOUS
0
ENDTAB
0
TABLE
2
STYLE
5
3
100
AcDbSymbolTable
70
1
0
STYLE
5
11
100
AcDbSymbolTableRecord
100
AcDbTextStyleTableRecord
2
STANDARD
70
0
0
ENDTAB
0
TABLE
2
VIEW
5
6
100
AcDbSymbolTable
70
0
0
ENDTAB
0
TABLE
2
UCS
5
7
100
AcDbSymbolTable
70
0
0
ENDTAB
0
TABLE
2
APPID
5
9
100
AcDbSymbolTable
70
2
0
APPID
5
12
100
AcDbSymbolTableRecord
100
AcDbRegAppTableRecord
2
ACAD
70
0
0
ENDTAB
0
TABLE
2
DIMSTYLE
5
A
100
AcDbSymbolTable
70
1
0
ENDTAB
0
TABLE
2
BLOCK_RECORD
5
1
100
AcDbSymbolTable
70
1
0
BLOCK_RECORD
5
1F
100
AcDbSymbolTableRecord
100
AcDbBlockTableRecord
2
*MODEL_SPACE
0
BLOCK_RECORD
5
1B
100
AcDbSymbolTableRecord
100
AcDbBlockTableRecord
2
*PAPER_SPACE
0
ENDTAB
0
ENDSEC
0
SECTION
2
BLOCKS
0
BLOCK
5
20
100
AcDbEntity
100
AcDbBlockBegin
2
*MODEL_SPACE
0
ENDBLK
5
21
100
AcDbEntity
100
AcDbBlockEnd
0
BLOCK
5
1C
100
AcDbEntity
100
AcDbBlockBegin
2
*PAPER_SPACE
0
ENDBLK
5
1D
100
AcDbEntity
100
AcDbBlockEnd
0
ENDSEC
0
SECTION
2
ENTITIES
0
LINE
5
100
100
AcDbEntity
8
0
100
AcDbLine
10
56
20
-6.7799999999999976
30
0
11
56
21
-35.779999999999994
31
0
0
LINE
5
101
100
AcDbEntity
8
0
100
AcDbLine
10
56
20
-35.779999999999994
30
0
11
60
21
-35.779999999999994
31
0
0
LINE
5
102
100
AcDbEntity
8
0
100
AcDbLine
10
60
20
-35.779999999999994
30
0
11
60
21
-21.779999999999998
31
0
0
LINE
5
103
100
AcDbEntity
8
0
100
AcDbLine
10
60
20
-21.779999999999998
30
0
11
59.456776695296639
21
-21.779999999999998
31
0
0
ARC
5
104
100
AcDbEntity
8
0
100
AcDbCircle
10
59.36838834764832
20
-21.691611652351678
30
0
40
0.12500000000000069
210
0
220
0
230
1
100
AcDbArc
50
135.00000000000347
51
315
0
LINE
5
105
100
AcDbEntity
8
0
100
AcDbLine
10
59.279999999999994
20
-21.603223304703363
30
0
11
59.279999999999994
21
-6.9567766952966306
31
0
0
ARC
5
106
100
AcDbEntity
8
0
100
AcDbCircle
10
59.36838834764832
20
-6.8683883476483167
30
0
40
0.12500000000000069
210
0
220
-0
230
1
100
AcDbArc
50
44.999999999999133
51
224.99999999999594
0
LINE
5
107
100
AcDbEntity
8
0
100
AcDbLine
10
59.456776695296639
20
-6.7800000000000002
30
0
11
60
21
-6.7799999999999976
31
0
0
LINE
5
108
100
AcDbEntity
8
0
100
AcDbLine
10
60
20
-6.7799999999999976
30
0
11
60
21
0.71999999999999897
31
0
0
LINE
5
109
100
AcDbEntity
8
0
100
AcDbLine
10
60
20
0.71999999999999897
30
0
11
53.999999999999993
21
0.71999999999999853
31
0
0
LINE
5
110
100
AcDbEntity
8
0
100
AcDbLine
10
53.999999999999993
20
0.71999999999999853
30
0
11
53.999999999999993
21
0.17677669529663198
31
0
0
ARC
5
111
100
AcDbEntity
8
0
100
AcDbCircle
10
53.91161165235166
20
0.088388347648319335
30
0
40
0.12499999999999489
210
0
220
0
230
1
100
AcDbArc
50
-134.99999999999773
51
44.999999999993278
0
LINE
5
112
100
AcDbEntity
8
0
100
AcDbLine
10
53.823223304703347
20
1.8576566356916988e-16
30
0
11
45.18
21
-1.3987061727561026e-15
31
0
0
LINE
5
113
100
AcDbEntity
8
0
100
AcDbLine
10
45.18
20
-1.3987061727561026e-15
30
0
11
45.18
21
-1.3232233047033612
31
0
0
ARC
5
114
100
AcDbEntity
8
0
100
AcDbCircle
10
45.091611652351688
20
-1.411611652351682
30
0
40
0.12499999999999957
210
0
220
0
230
1
100
AcDbArc
50
-134.99999999999966
51
45.000000000002807
0
LINE
5
115
100
AcDbEntity
8
0
100
AcDbLine
10
45.003223304703369
20
-1.5000000000000022
30
0
11
44.636776695296632
21
-1.5000000000000004
31
0
0
ARC
5
116
100
AcDbEntity
8
0
100
AcDbCircle
10
44.54838834764832
20
-1.411611652351682
30
0
40
0.12499999999999994
210
0
220
0
230
1
100
AcDbArc
50
134.99999999999952
51
314.9999999999979
0
LINE
5
117
100
AcDbEntity
8
0
100
AcDbLine
10
44.460000000000001
20
-1.3232233047033612
30
0
11
44.460000000000001
21
-2.4477358023231794e-15
31
0
0
LINE
5
118
100
AcDbEntity
8
0
100
AcDbLine
10
44.460000000000001
20
-2.4477358023231794e-15
30
0
11
30.359999999999999
21
-1.3987061727561026e-15
31
0
0
LINE
5
119
100
AcDbEntity
8
0
100
AcDbLine
10
30.359999999999999
20
-1.3987061727561026e-15
30
0
11
30.359999999999999
21
-1.3232233047033621
31
0
0
ARC
5
120
100
AcDbEntity
8
0
100
AcDbCircle
10
30.271611652351684
20
-1.4116116523516828
30
0
40
0.12499999999999957
210
0
220
0
230
1
100
AcDbArc
50
-134.99999999999849
51
45.000000000001656
0
LINE
5
121
100
AcDbEntity
8
0
100
AcDbLine
10
30.183223304703368
20
-1.5000000000000031
30
0
11
29.816776695296632
21
-1.5000000000000013
31
0
0
ARC
5
122
100
AcDbEntity
8
0
100
AcDbCircle
10
29.728388347648316
20
-1.4116116523516828
30
0
40
0.12499999999999994
210
0
220
0
230
1
100
AcDbArc
50
134.99999999999952
51
314.99999999999909
0
LINE
5
123
100
AcDbEntity
8
0
100
AcDbLine
10
29.639999999999997
20
-1.3232233047033621
30
0
11
29.639999999999997
21
-1.3987061727561026e-15
31
0
0
LINE
5
124
100
AcDbEntity
8
0
100
AcDbLine
10
29.639999999999997
20
-1.3987061727561026e-15
30
0
11
15.539999999999999
21
-3.0697296837363012e-15
31
0
0
LINE
5
125
100
AcDbEntity
8
0
100
AcDbLine
10
15.539999999999999
20
-3.0697296837363012e-15
30
0
11
15.539999999999999
21
-1.3232233047033668
31
0
0
ARC
5
126
100
AcDbEntity
8
0
100
AcDbCircle
10
15.45161165235168
20
-1.4116116523516846
30
0
40
0.12500000000000006
210
0
220
0
230
1
100
AcDbArc
50
-135.00000000000037
51
44.999999999999567
0
LINE
5
127
100
AcDbEntity
8
0
100
AcDbLine
10
15.363223304703361
20
-1.5000000000000027
30
0
11
14.996776695296637
21
-1.5000000000000031
31
0
0
ARC
5
128
100
AcDbEntity
8
0
100
AcDbCircle
10
14.908388347648318
20
-1.4116116523516846
30
0
40
0.12499999999999994
210
0
220
0
230
1
100
AcDbArc
50
135.00000000000043
51
315.00000000000017
0
LINE
5
129
100
AcDbEntity
8
0
100
AcDbLine
10
14.819999999999999
20
-1.3232233047033668
30
0
11
14.819999999999999
21
-1.3987061727561026e-15
31
0
0
LINE
5
130
100
AcDbEntity
8
0
100
AcDbLine
10
14.819999999999999
20
-1.3987061727561026e-15
30
0
11
6.1767766952966365
21
-3.6468179629623271e-17
31
0
0
ARC
5
131
100
AcDbEntity
8
0
100
AcDbCircle
10
6.0883883476483174
20
0.088388347648318211
30
0
40
0.12499999999999993
210
0
220
0
230
1
100
AcDbArc
50
134.9999999999996
51
315.00000000000028
0
LINE
5
132
100
AcDbEntity
8
0
100
AcDbLine
10
6
20
0.17677669529663678
30
0
11
6
21
0.71999999999999997
31
0
0
LINE
5
133
100
AcDbEntity
8
0
100
AcDbLine
10
6
20
0.71999999999999997
30
0
11
0
21
0.72000000000000086
31
0
0
LINE
5
134
100
AcDbEntity
8
0
100
AcDbLine
10
0
20
0.72000000000000086
30
0
11
0
21
-6.7800000000000002
31
0
0
LINE
5
135
100
AcDbEntity
8
0
100
AcDbLine
10
0
20
-6.7800000000000002
30
0
11
0.543223304703363
21
-6.7800000000000002
31
0
0
ARC
5
136
100
AcDbEntity
8
0
100
AcDbCircle
10
0.63161165235168104
20
-6.8683883476483194
30
0
40
0.12499999999999988
210
-0
220
0
230
1
100
AcDbArc
50
-44.999999999999439
51
134.99999999999966
0
LINE
5
137
100
AcDbEntity
8
0
100
AcDbLine
10
0.7200000000000002
20
-6.9567766952966368
30
0
11
0.71999999999999997
21
-21.603223304703356
31
0
0
ARC
5
138
100
AcDbEntity
8
0
100
AcDbCircle
10
0.63161165235168104
20
-21.691611652351678
30
0
40
0.12499999999999999
210
0
220
0
230
1
100
AcDbArc
50
-134.99999999999966
51
45.000000000001222
0
LINE
5
139
100
AcDbEntity
8
0
100
AcDbLine
10
0.543223304703363
20
-21.779999999999998
30
0
11
0
21
-21.779999999999998
31
0
0
LINE
5
140
100
AcDbEntity
8
0
100
AcDbLine
10
0
20
-21.779999999999998
30
0
11
0
21
-35.779999999999994
31
0
0
LINE
5
141
100
AcDbEntity
8
0
100
AcDbLine
10
0
20
-35.779999999999994
30
0
11
3.9999999999999996
21
-35.779999999999994
31
0
0
LINE
5
142
100
AcDbEntity
8
0
100
AcDbLine
10
3.9999999999999996
20
-35.779999999999994
30
0
11
3.9999999999999996
21
-6.7799999999999976
31
0
0
ARC
5
143
100
AcDbEntity
8
0
100
AcDbCircle
10
7
20
-6.7799999999999976
30
0
40
3
210
0
220
-0
230
1
100
AcDbArc
50
90
51
180
0
LINE
5
144
100
AcDbEntity
8
0
100
AcDbLine
10
7
20
-3.7799999999999976
30
0
11
53
21
-3.7799999999999963
31
0
0
ARC
5
145
100
AcDbEntity
8
0
100
AcDbCircle
10
53
20
-6.7799999999999976
30
0
40
3.0000000000000013
210
0
220
0
230
1
100
AcDbArc
50
0
51
90
0
ENDSEC
0
SECTION
2
OBJECTS
0
DICTIONARY
5
C
100
AcDbDictionary
3
ACAD_GROUP
350
D
3
ACAD_MLINESTYLE
350
17
0
DICTIONARY
5
D
100
AcDbDictionary
0
DICTIONARY
5
1A
330
C
100
AcDbDictionary
0
DICTIONARY
5
17
100
AcDbDictionary
0
ENDSEC
0
EOF
