0
SECTION
2
HEADER
9
$INSUNITS
70
1
9
$ACADVER
1
AC1014
9
$HANDSEED
5
FFFF
0
ENDSEC
0
SECTION
2
TABLES
0
TABLE
2
VPORT
5
8
100
AcDbSymbolTable
0
ENDTAB
0
TABLE
2
LTYPE
5
5
100
AcDbSymbolTable
0
LTYPE
5
14
100
AcDbSymbolTableRecord
100
AcDbLinetypeTableRecord
2
BYBLOCK
70
0
0
LTYPE
5
15
100
AcDbSymbolTableRecord
100
AcDbLinetypeTableRecord
2
BYLAYER
70
0
0
ENDTAB
0
TABLE
2
LAYER
5
2
100
AcDbSymbolTable
70
2
0
LAYER
5
50
100
AcDbSymbolTableRecord
100
AcDbLayerTableRecord
2
0
70
0
6
CONTINUOUS
0
ENDTAB
0
TABLE
2
STYLE
5
3
100
AcDbSymbolTable
70
1
0
STYLE
5
11
100
AcDbSymbolTableRecord
100
AcDbTextStyleTableRecord
2
STANDARD
70
0
0
ENDTAB
0
TABLE
2
VIEW
5
6
100
AcDbSymbolTable
70
0
0
ENDTAB
0
TABLE
2
UCS
5
7
100
AcDbSymbolTable
70
0
0
ENDTAB
0
TABLE
2
APPID
5
9
100
AcDbSymbolTable
70
2
0
APPID
5
12
100
AcDbSymbolTableRecord
100
AcDbRegAppTableRecord
2
ACAD
70
0
0
ENDTAB
0
TABLE
2
DIMSTYLE
5
A
100
AcDbSymbolTable
70
1
0
ENDTAB
0
TABLE
2
BLOCK_RECORD
5
1
100
AcDbSymbolTable
70
1
0
BLOCK_RECORD
5
1F
100
AcDbSymbolTableRecord
100
AcDbBlockTableRecord
2
*MODEL_SPACE
0
BLOCK_RECORD
5
1B
100
AcDbSymbolTableRecord
100
AcDbBlockTableRecord
2
*PAPER_SPACE
0
ENDTAB
0
ENDSEC
0
SECTION
2
BLOCKS
0
BLOCK
5
20
100
AcDbEntity
100
AcDbBlockBegin
2
*MODEL_SPACE
0
ENDBLK
5
21
100
AcDbEntity
100
AcDbBlockEnd
0
BLOCK
5
1C
100
AcDbEntity
100
AcDbBlockBegin
2
*PAPER_SPACE
0
ENDBLK
5
1D
100
AcDbEntity
100
AcDbBlockEnd
0
ENDSEC
0
SECTION
2
ENTITIES
0
LINE
5
100
100
AcDbEntity
8
0
100
AcDbLine
10
-56
20
-35.779999999999994
30
0
11
-56
21
-6.7799999999999976
31
0
0
ARC
5
101
100
AcDbEntity
8
0
100
AcDbCircle
10
-53
20
-6.7799999999999976
30
0
40
3
210
0
220
-0
230
1
100
AcDbArc
50
90
51
180
0
LINE
5
102
100
AcDbEntity
8
0
100
AcDbLine
10
-53
20
-3.7799999999999976
30
0
11
-7
21
-3.7799999999999963
31
0
0
ARC
5
103
100
AcDbEntity
8
0
100
AcDbCircle
10
-7
20
-6.7799999999999949
30
0
40
3
210
0
220
-0
230
1
100
AcDbArc
50
0
51
90
0
LINE
5
104
100
AcDbEntity
8
0
100
AcDbLine
10
-3.9999999999999996
20
-6.7799999999999923
30
0
11
-3.9999999999999996
21
-35.779999999999994
31
0
0
LINE
5
105
100
AcDbEntity
8
0
100
AcDbLine
10
-3.9999999999999996
20
-35.779999999999994
30
0
11
0
21
-35.779999999999994
31
0
0
LINE
5
106
100
AcDbEntity
8
0
100
AcDbLine
10
0
20
-35.779999999999994
30
0
11
0
21
-21.779999999999998
31
0
0
LINE
5
107
100
AcDbEntity
8
0
100
AcDbLine
10
0
20
-21.779999999999998
30
0
11
-0.543223304703363
21
-21.779999999999998
31
0
0
ARC
5
108
100
AcDbEntity
8
0
100
AcDbCircle
10
-0.63161165235168149
20
-21.691611652351678
30
0
40
0.12499999999999999
210
0
220
0
230
1
100
AcDbArc
50
134.9999999999996
51
314.99999999999977
0
LINE
5
109
100
AcDbEntity
8
0
100
AcDbLine
10
-0.71999999999999942
20
-21.603223304703359
30
0
11
-0.71999999999999997
21
-6.9567766952966386
31
0
0
ARC
5
110
100
AcDbEntity
8
0
100
AcDbCircle
10
-0.63161165235168104
20
-6.8683883476483194
30
0
40
0.12500000000000006
210
0
220
-0
230
1
100
AcDbArc
50
45.000000000000355
51
225.00000000000006
0
LINE
5
111
100
AcDbEntity
8
0
100
AcDbLine
10
-0.543223304703363
20
-6.7800000000000002
30
0
11
0
21
-6.7800000000000002
31
0
0
LINE
5
112
100
AcDbEntity
8
0
100
AcDbLine
10
0
20
-6.7800000000000002
30
0
11
0
21
0
31
0
0
LINE
5
113
100
AcDbEntity
8
0
100
AcDbLine
10
0
20
0
30
0
11
-14.819999999999999
21
-1.4582255843627454e-15
31
0
0
LINE
5
114
100
AcDbEntity
8
0
100
AcDbLine
10
-14.819999999999999
20
-1.4582255843627454e-15
30
0
11
-14.819999999999999
21
-1.3232233047033668
31
0
0
ARC
5
115
100
AcDbEntity
8
0
100
AcDbCircle
10
-14.908388347648318
20
-1.4116116523516851
30
0
40
0.12499999999999982
210
0
220
0
230
1
100
AcDbArc
50
-135.00000000000043
51
44.999999999999709
0
LINE
5
116
100
AcDbEntity
8
0
100
AcDbLine
10
-14.996776695296637
20
-1.5000000000000029
30
0
11
-15.363223304703361
21
-1.5000000000000031
31
0
0
ARC
5
117
100
AcDbEntity
8
0
100
AcDbCircle
10
-15.45161165235168
20
-1.4116116523516851
30
0
40
0.12500000000000031
210
0
220
0
230
1
100
AcDbArc
50
135.00000000000031
51
315.00000000000034
0
LINE
5
118
100
AcDbEntity
8
0
100
AcDbLine
10
-15.539999999999999
20
-1.3232233047033668
30
0
11
-15.539999999999999
21
-3.1470888887012311e-15
31
0
0
LINE
5
119
100
AcDbEntity
8
0
100
AcDbLine
10
-15.539999999999999
20
-3.1470888887012311e-15
30
0
11
-29.639999999999997
21
-1.4475325165921714e-15
31
0
0
LINE
5
120
100
AcDbEntity
8
0
100
AcDbLine
10
-29.639999999999997
20
-1.4475325165921714e-15
30
0
11
-29.639999999999997
21
-1.3232233047033621
31
0
0
ARC
5
121
100
AcDbEntity
8
0
100
AcDbCircle
10
-29.728388347648316
20
-1.4116116523516835
30
0
40
0.1249999999999987
210
0
220
0
230
1
100
AcDbArc
50
-134.99999999999892
51
45.000000000000718
0
LINE
5
122
100
AcDbEntity
8
0
100
AcDbLine
10
-29.816776695296632
20
-1.5000000000000024
30
0
11
-30.183223304703368
21
-1.5000000000000013
31
0
0
ARC
5
123
100
AcDbEntity
8
0
100
AcDbCircle
10
-30.271611652351684
20
-1.4116116523516831
30
0
40
0.12500000000000056
210
0
220
0
230
1
100
AcDbArc
50
134.99999999999807
51
314.99999999999915
0
LINE
5
124
100
AcDbEntity
8
0
100
AcDbLine
10
-30.359999999999999
20
-1.3232233047033615
30
0
11
-30.359999999999999
21
-1.3987061727561026e-15
31
0
0
LINE
5
125
100
AcDbEntity
8
0
100
AcDbLine
10
-30.359999999999999
20
-1.3987061727561026e-15
30
0
11
-44.460000000000001
21
-2.4025947444570552e-15
31
0
0
LINE
5
126
100
AcDbEntity
8
0
100
AcDbLine
10
-44.460000000000001
20
-2.4025947444570552e-15
30
0
11
-44.460000000000001
21
-1.3232233047033612
31
0
0
ARC
5
127
100
AcDbEntity
8
0
100
AcDbCircle
10
-44.548388347648313
20
-1.4116116523516826
30
0
40
0.12500000000000266
210
0
220
0
230
1
100
AcDbArc
50
-135.00000000000009
51
45.00000000000302
0
LINE
5
128
100
AcDbEntity
8
0
100
AcDbLine
10
-44.636776695296632
20
-1.5000000000000016
30
0
11
-45.003223304703369
21
-1.5000000000000004
31
0
0
ARC
5
129
100
AcDbEntity
8
0
100
AcDbCircle
10
-45.091611652351688
20
-1.4116116523516822
30
0
40
0.1249999999999966
210
0
220
0
230
1
100
AcDbArc
50
134.99999999999693
51
315.00000000000028
0
LINE
5
130
100
AcDbEntity
8
0
100
AcDbLine
10
-45.18
20
-1.3232233047033606
30
0
11
-45.18
21
-1.3987061727561026e-15
31
0
0
LINE
5
131
100
AcDbEntity
8
0
100
AcDbLine
10
-45.18
20
-1.3987061727561026e-15
30
0
11
-60
21
-1.049029629567077e-15
31
0
0
LINE
5
132
100
AcDbEntity
8
0
100
AcDbLine
10
-60
20
-1.049029629567077e-15
30
0
11
-60
21
-6.7799999999999976
31
0
0
LINE
5
133
100
AcDbEntity
8
0
100
AcDbLine
10
-60
20
-6.7799999999999976
30
0
11
-59.456776695296639
21
-6.7799999999999976
31
0
0
ARC
5
134
100
AcDbEntity
8
0
100
AcDbCircle
10
-59.368388347648327
20
-6.8683883476483194
30
0
40
0.12500000000000563
210
0
220
0
230
1
100
AcDbArc
50
-44.999999999993079
51
134.99999999999685
0
LINE
5
135
100
AcDbEntity
8
0
100
AcDbLine
10
-59.279999999999994
20
-6.9567766952966315
30
0
11
-59.279999999999994
21
-21.603223304703363
31
0
0
ARC
5
136
100
AcDbEntity
8
0
100
AcDbCircle
10
-59.368388347648327
20
-21.691611652351675
30
0
40
0.12499999999999474
210
0
220
0
230
1
100
AcDbArc
50
-134.99999999999773
51
44.999999999993086
0
LINE
5
137
100
AcDbEntity
8
0
100
AcDbLine
10
-59.456776695296639
20
-21.779999999999994
30
0
11
-60
21
-21.779999999999998
31
0
0
LINE
5
138
100
AcDbEntity
8
0
100
AcDbLine
10
-60
20
-21.779999999999998
30
0
11
-60
21
-35.779999999999994
31
0
0
LINE
5
139
100
AcDbEntity
8
0
100
AcDbLine
10
-60
20
-35.779999999999994
30
0
11
-56
21
-35.779999999999994
31
0
0
ENDSEC
0
SECTION
2
OBJECTS
0
DICTIONARY
5
C
100
AcDbDictionary
3
ACAD_GROUP
350
D
3
ACAD_MLINESTYLE
350
17
0
DICTIONARY
5
D
100
AcDbDictionary
0
DICTIONARY
5
1A
330
C
100
AcDbDictionary
0
DICTIONARY
5
17
100
AcDbDictionary
0
ENDSEC
0
EOF
