0
SECTION
2
HEADER
9
$INSUNITS
70
1
9
$ACADVER
1
AC1014
9
$HANDSEED
5
FFFF
0
ENDSEC
0
SECTION
2
TABLES
0
TABLE
2
VPORT
5
8
100
AcDbSymbolTable
0
ENDTAB
0
TABLE
2
LTYPE
5
5
100
AcDbSymbolTable
0
LTYPE
5
14
100
AcDbSymbolTableRecord
100
AcDbLinetypeTableRecord
2
BYBLOCK
70
0
0
LTYPE
5
15
100
AcDbSymbolTableRecord
100
AcDbLinetypeTableRecord
2
BYLAYER
70
0
0
ENDTAB
0
TABLE
2
LAYER
5
2
100
AcDbSymbolTable
70
2
0
LAYER
5
50
100
AcDbSymbolTableRecord
100
AcDbLayerTableRecord
2
0
70
0
6
CONTINUOUS
0
ENDTAB
0
TABLE
2
STYLE
5
3
100
AcDbSymbolTable
70
1
0
STYLE
5
11
100
AcDbSymbolTableRecord
100
AcDbTextStyleTableRecord
2
STANDARD
70
0
0
ENDTAB
0
TABLE
2
VIEW
5
6
100
AcDbSymbolTable
70
0
0
ENDTAB
0
TABLE
2
UCS
5
7
100
AcDbSymbolTable
70
0
0
ENDTAB
0
TABLE
2
APPID
5
9
100
AcDbSymbolTable
70
2
0
APPID
5
12
100
AcDbSymbolTableRecord
100
AcDbRegAppTableRecord
2
ACAD
70
0
0
ENDTAB
0
TABLE
2
DIMSTYLE
5
A
100
AcDbSymbolTable
70
1
0
ENDTAB
0
TABLE
2
BLOCK_RECORD
5
1
100
AcDbSymbolTable
70
1
0
BLOCK_RECORD
5
1F
100
AcDbSymbolTableRecord
100
AcDbBlockTableRecord
2
*MODEL_SPACE
0
BLOCK_RECORD
5
1B
100
AcDbSymbolTableRecord
100
AcDbBlockTableRecord
2
*PAPER_SPACE
0
ENDTAB
0
ENDSEC
0
SECTION
2
BLOCKS
0
BLOCK
5
20
100
AcDbEntity
100
AcDbBlockBegin
2
*MODEL_SPACE
0
ENDBLK
5
21
100
AcDbEntity
100
AcDbBlockEnd
0
BLOCK
5
1C
100
AcDbEntity
100
AcDbBlockBegin
2
*PAPER_SPACE
0
ENDBLK
5
1D
100
AcDbEntity
100
AcDbBlockEnd
0
ENDSEC
0
SECTION
2
ENTITIES
0
LWPOLYLINE
5
100
100
AcDbEntity
8
0
100
AcDbPolyline
90
4
70
1
43
0.0
10
25.75
20
-1.8900000000000101
42
-0.99999999999999989
10
25.75
20
-3.3900000000000095
10
22.249999999999993
20
-3.3900000000000086
42
-0.99999999999999989
10
22.249999999999993
20
-1.890000000000009
0
LWPOLYLINE
5
101
100
AcDbEntity
8
0
100
AcDbPolyline
90
4
70
1
43
0.0
10
4.2499999999999973
20
-3.3900000000000103
10
7.7499999999999973
20
-3.3900000000000103
42
0.99999999999999989
10
7.7499999999999973
20
-1.8900000000000095
10
4.2499999999999964
20
-1.8900000000000097
42
0.99999999999999989
0
ARC
5
102
100
AcDbEntity
8
0
100
AcDbCircle
10
0.63161165235168149
20
-21.868388347648317
30
0
40
0.12499999999999999
210
-0
220
0
230
1
100
AcDbArc
50
-45.000000000000405
51
134.99999999999966
0
LINE
5
103
100
AcDbEntity
8
0
100
AcDbLine
10
0.71999999999999942
20
-21.956776695296636
30
0
11
0.71999999999999997
21
-35.779999999999994
31
0
0
LINE
5
104
100
AcDbEntity
8
0
100
AcDbLine
10
0.71999999999999997
20
-35.779999999999994
30
0
11
3.9999999999999991
21
-35.779999999999994
31
0
0
LINE
5
105
100
AcDbEntity
8
0
100
AcDbLine
10
3.9999999999999991
20
-35.779999999999994
30
0
11
4.0000000000000027
21
-8.2800000000000047
31
0
0
ARC
5
106
100
AcDbEntity
8
0
100
AcDbCircle
10
7.0000000000000009
20
-8.2800000000000047
30
0
40
3
210
0
220
-0
230
1
100
AcDbArc
50
90
51
180
0
LINE
5
107
100
AcDbEntity
8
0
100
AcDbLine
10
7.0000000000000009
20
-5.2800000000000038
30
0
11
23
21
-5.2800000000000047
31
0
0
ARC
5
108
100
AcDbEntity
8
0
100
AcDbCircle
10
23
20
-8.2800000000000065
30
0
40
2.9999999999999987
210
0
220
0
230
1
100
AcDbArc
50
0
51
90
0
LINE
5
109
100
AcDbEntity
8
0
100
AcDbLine
10
26
20
-8.2800000000000065
30
0
11
25.999999999999996
21
-35.780000000000008
31
0
0
LINE
5
110
100
AcDbEntity
8
0
100
AcDbLine
10
25.999999999999996
20
-35.780000000000008
30
0
11
29.279999999999994
21
-35.780000000000008
31
0
0
LINE
5
111
100
AcDbEntity
8
0
100
AcDbLine
10
29.279999999999994
20
-35.780000000000008
30
0
11
29.279999999999994
21
-21.956776695296643
31
0
0
ARC
5
112
100
AcDbEntity
8
0
100
AcDbCircle
10
29.368388347648313
20
-21.868388347648331
30
0
40
0.12500000000000266
210
0
220
-0
230
1
100
AcDbArc
50
45.00000000000346
51
224.99999999999767
0
LINE
5
113
100
AcDbEntity
8
0
100
AcDbLine
10
29.456776695296629
20
-21.780000000000005
30
0
11
29.999999999999993
21
-21.780000000000008
31
0
0
LINE
5
114
100
AcDbEntity
8
0
100
AcDbLine
10
29.999999999999993
20
-21.780000000000008
30
0
11
29.999999999999993
21
-6.7800000000000091
31
0
0
LINE
5
115
100
AcDbEntity
8
0
100
AcDbLine
10
29.999999999999993
20
-6.7800000000000091
30
0
11
29.456776695296625
21
-6.7800000000000091
31
0
0
ARC
5
116
100
AcDbEntity
8
0
100
AcDbCircle
10
29.368388347648303
20
-6.69161165235169
30
0
40
0.12499999999999674
210
0
220
0
230
1
100
AcDbArc
50
134.99999999999571
51
315.00000000000119
0
LINE
5
117
100
AcDbEntity
8
0
100
AcDbLine
10
29.279999999999994
20
-6.6032233047033682
30
0
11
29.279999999999994
21
-9.7909432092927175e-15
31
0
0
LINE
5
118
100
AcDbEntity
8
0
100
AcDbLine
10
29.279999999999994
20
-9.7909432092927175e-15
30
0
11
17.176776695296635
21
-9.7909432092927175e-15
31
0
0
ARC
5
119
100
AcDbEntity
8
0
100
AcDbCircle
10
17.088388347648316
20
0.088388347648307872
30
0
40
0.12500000000000031
210
0
220
0
230
1
100
AcDbArc
50
135.00000000000026
51
315.00000000000051
0
LINE
5
120
100
AcDbEntity
8
0
100
AcDbLine
10
16.999999999999996
20
0.17677669529662626
30
0
11
16.999999999999996
21
0.71999999999999054
31
0
0
LINE
5
121
100
AcDbEntity
8
0
100
AcDbLine
10
16.999999999999996
20
0.71999999999999054
30
0
11
12.999999999999998
21
0.71999999999999054
31
0
0
LINE
5
122
100
AcDbEntity
8
0
100
AcDbLine
10
12.999999999999998
20
0.71999999999999054
30
0
11
12.999999999999998
21
0.1767766952966264
31
0
0
ARC
5
123
100
AcDbEntity
8
0
100
AcDbCircle
10
12.911611652351679
20
0.088388347648307969
30
0
40
0.12499999999999971
210
0
220
0
230
1
100
AcDbArc
50
-135.00000000000051
51
44.999999999999766
0
LINE
5
124
100
AcDbEntity
8
0
100
AcDbLine
10
12.82322330470336
20
-9.5833227617742349e-15
30
0
11
0.72000000000000042
21
-2.7974123455122052e-15
31
0
0
LINE
5
125
100
AcDbEntity
8
0
100
AcDbLine
10
0.72000000000000042
20
-2.7974123455122052e-15
30
0
11
0.71999999999999997
21
-6.6032233047033628
31
0
0
ARC
5
126
100
AcDbEntity
8
0
100
AcDbCircle
10
0.63161165235168126
20
-6.691611652351682
30
0
40
0.12499999999999982
210
0
220
0
230
1
100
AcDbArc
50
-134.9999999999998
51
45.000000000000135
0
LINE
5
127
100
AcDbEntity
8
0
100
AcDbLine
10
0.54322330470336355
20
-6.7800000000000002
30
0
11
0
21
-6.7800000000000002
31
0
0
LINE
5
128
100
AcDbEntity
8
0
100
AcDbLine
10
0
20
-6.7800000000000002
30
0
11
0
21
-21.779999999999998
31
0
0
LINE
5
129
100
AcDbEntity
8
0
100
AcDbLine
10
0
20
-21.779999999999998
30
0
11
0.54322330470336344
21
-21.779999999999998
31
0
0
ENDSEC
0
SECTION
2
OBJECTS
0
DICTIONARY
5
C
100
AcDbDictionary
3
ACAD_GROUP
350
D
3
ACAD_MLINESTYLE
350
17
0
DICTIONARY
5
D
100
AcDbDictionary
0
DICTIONARY
5
1A
330
C
100
AcDbDictionary
0
DICTIONARY
5
17
100
AcDbDictionary
0
ENDSEC
0
EOF
